<?xml version="1.0" encoding="UTF-8" standalone="no"?>
<!-- Created with Inkscape (http://www.inkscape.org/) -->

<svg
   version="1.1"
   id="svg1"
   width="555.51025"
   height="527.97687"
   viewBox="0 0 555.51025 527.97687"
   sodipodi:docname="430c.svg"
   inkscape:version="1.3.2 (091e20ef0f, 2023-11-25)"
   xmlns:inkscape="http://www.inkscape.org/namespaces/inkscape"
   xmlns:sodipodi="http://sodipodi.sourceforge.net/DTD/sodipodi-0.dtd"
   xmlns="http://www.w3.org/2000/svg"
   xmlns:svg="http://www.w3.org/2000/svg">
  <defs
     id="defs1" />
  <sodipodi:namedview
     id="namedview1"
     pagecolor="#ffffff"
     bordercolor="#000000"
     borderopacity="0.25"
     inkscape:showpageshadow="2"
     inkscape:pageopacity="0.0"
     inkscape:pagecheckerboard="0"
     inkscape:deskcolor="#d1d1d1"
     showgrid="false"
     inkscape:zoom="1.2055711"
     inkscape:cx="292.39255"
     inkscape:cy="299.85789"
     inkscape:window-width="1920"
     inkscape:window-height="1011"
     inkscape:window-x="0"
     inkscape:window-y="0"
     inkscape:window-maximized="1"
     inkscape:current-layer="layer1" />
  <g
     inkscape:groupmode="layer"
     id="layer1"
     inkscape:label="Layer 1"
     transform="translate(-21.282378,-34.156515)">
    <path
       style="fill:#000000"
       d="m 112,559.58538 c 0,-2.10643 0.69314,-2.67151 4,-3.26099 2.2,-0.39217 14.8,-3.3524 28,-6.5783 17.50753,-4.2786 25.09845,-6.62112 28.06053,-8.65936 4.55221,-3.13242 8.20614,-7.73892 8.20614,-10.34545 0,-1.55372 -0.30562,-1.57135 -3.00863,-0.17358 -3.96995,2.05295 -15.11819,4.8524 -42.33175,10.63001 -25.98881,5.51758 -38.951807,9.01848 -50.437864,13.62169 -12.311989,4.93422 -14.090914,5.3486 -14.818758,3.45187 -1.449584,-3.77756 15.281406,-16.18842 48.730332,-36.14763 35.41964,-21.13515 45.81359,-29.33615 51.12751,-40.3405 1.74842,-3.62072 3.47749,-8.50314 3.84236,-10.8498 l 0.66341,-4.26667 -4.04844,4.8 c -12.2739,14.55244 -15.14859,15.90743 -68.11817,32.10752 -33.563879,10.2651 -48.920309,16.8951 -68.72396,29.67093 -5.53151,3.56852 -10.45151,6.48822 -10.933334,6.48822 -2.032395,0 -0.604111,-5.30822 3.123957,-11.61019 3.425053,-5.78975 4.919915,-7.22484 10.4,-9.9842 3.52,-1.77241 8.32,-4.53777 10.666667,-6.14524 2.346666,-1.60748 14.586666,-8.07461 27.2,-14.37141 30.05003,-15.00151 38.81337,-20.233 41.14496,-24.56249 1.95504,-3.6303 1.92504,-4.74006 -0.64858,-23.99314 -1.36037,-10.17689 -0.727,-18.89529 1.7159,-23.61934 2.07313,-4.00898 8.80893,-8.29438 19.97533,-12.70854 21.81107,-8.62209 32.91158,-16.44374 37.85801,-26.67556 2.76707,-5.72376 2.98497,-11.95942 0.70576,-20.19656 -0.89282,-3.22667 -2.03287,-12.42479 -2.53346,-20.44028 -0.7581,-12.13883 -1.3184,-15.29998 -3.35375,-18.9214 -1.34397,-2.39128 -2.62115,-4.17023 -2.83818,-3.95321 -0.21702,0.21703 -0.79461,5.37166 -1.28355,11.45474 -0.48893,6.08308 -1.53271,13.22015 -2.31951,15.86015 -2.05507,6.89548 -9.08786,13.32581 -22.06509,20.1749 -12.34458,6.5152 -16.84908,10.77649 -23.58706,22.31349 -4.49422,7.69518 -6.13222,9.15428 -17.460175,15.55326 -11.216299,6.33591 -17.09578,15.60486 -21.032996,33.15835 -3.151267,14.04945 -4.265757,16.53376 -10.347082,23.06466 -6.299266,6.76496 -23.668642,20.36401 -25.284066,19.79572 -2.225925,-0.78305 -0.432068,-4.42588 6.387327,-12.9709 3.75555,-4.70588 8.460913,-11.67615 10.456363,-15.48948 3.207814,-6.13018 14.114201,-32.75054 16.068964,-39.2212 l 0.731435,-2.4212 -3.999206,2.71394 c -4.764102,3.233 -6.677885,2.20136 -4.331948,-2.33518 0.884184,-1.70983 2.636455,-6.44498 3.893937,-10.52257 5.826279,-18.89265 5.979172,-19.04512 20.312426,-20.25653 4.968832,-0.41996 9.893271,-1.20922 10.943201,-1.75391 1.04992,-0.54469 3.14975,-3.61094 4.66628,-6.81389 3.04527,-6.43171 6.89366,-10.17281 13.80783,-13.42285 4.76456,-2.23961 7.57155,-4.76754 6.49227,-5.84683 -0.34577,-0.34576 -3.89417,0.37032 -7.88534,1.5913 -7.59303,2.32287 -37.370387,19.44186 -45.722767,26.286 -4.555142,3.7326 -9.004109,4.92088 -8.996579,2.40292 0.0086,-2.87099 4.609095,-8.50033 20.739715,-25.37784 13.291965,-13.90742 19.030941,-19.05916 27.617451,-24.79151 12.73965,-8.505 16.10994,-12.11683 18.37991,-19.69719 2.18578,-7.29922 0.67108,-15.83683 -3.44458,-19.41535 -2.34793,-2.0415 -2.66608,-3.0146 -2.17721,-6.65934 0.73282,-5.46359 3.27111,-8.09105 12.78248,-13.23154 9.46643,-5.11619 18.37309,-13.8112 22.83658,-22.2939 1.85219,-3.52 4.91102,-11.68 6.79741,-18.13333 4.29343,-14.68782 5.70924,-17.41831 13.82717,-26.66667 8.77917,-10.00169 11.26845,-14.51375 13.23745,-23.99424 2.07297,-9.98102 15.6517,-37.95003 21.83462,-44.9742 4.76403,-5.41222 6.09362,-6.08583 19.72596,-9.99379 18.45833,-5.29141 19.96953,-8.04698 19.69536,-35.912981 -0.21495,-21.846911 0.70895,-26.324436 8.30488,-40.248036 8.79882,-16.12855 14.88448,-20.35738 29.24225,-20.319993 10.36853,0.027 15.55926,1.905662 20.9425,7.579655 7.23217,7.622769 9.01711,15.94831 9.34689,43.596919 0.4109,34.449896 4.00725,44.601176 22.82322,64.422276 8.10269,8.53554 12.29999,13.92651 14.6643,18.83468 10.14032,21.05075 12.81519,26.06429 18.34503,34.38436 8.32857,12.53096 17.79837,23.88981 21.52219,25.81548 1.70535,0.88186 6.95948,2.50192 11.67585,3.60013 9.60293,2.23604 10.45618,2.80284 26.74325,17.76526 13.94335,12.80932 23.10892,18.9909 41.45706,27.96009 18.00086,8.79943 21.65327,11.96038 24.74589,21.41619 5.28392,16.15584 10.31113,18.53496 50.06372,23.69253 10.2156,1.32539 18.21238,2.87522 19.05954,3.69387 2.11157,2.04049 0.42258,3.97037 -2.89442,3.30725 -1.55749,-0.31136 -15.04293,-1.08609 -29.96765,-1.72162 -43.76109,-1.86345 -48.84657,-3.38425 -66.17984,-19.79096 -5.83747,-5.52541 -11.01348,-10.0462 -11.50227,-10.0462 -1.52711,0 -3.4487,2.47554 -3.4487,4.44288 0,2.91961 5.82638,8.8726 15.03615,15.36291 9.79372,6.90182 11.63052,9.16642 11.63052,14.33934 0,5.19463 -2.74078,10.15592 -11.0192,19.94671 -11.68086,13.8148 -14.5468,13.80955 -10.44814,-0.0191 3.09287,-10.43521 2.97911,-15.72979 -0.42488,-19.77521 -1.48072,-1.75973 -7.4648,-6.60695 -13.29797,-10.77158 -11.76158,-8.39729 -16.6122,-14.29588 -18.03976,-21.93722 -0.50217,-2.68798 -1.14463,-5.11882 -1.42769,-5.40188 -1.28673,-1.28674 -3.15279,9.7448 -2.74136,16.20611 0.41972,6.59157 0.73841,7.3801 4.12692,10.2113 2.01964,1.68746 8.47208,5.51317 14.33875,8.50157 12.37577,6.30404 17.6,9.93792 17.6,12.24225 0,1.98373 -3.74346,1.51826 -19.73334,-2.45369 -17.17983,-4.26754 -19.68305,-5.91308 -32.70375,-21.49845 -1.5604,-1.86774 -3.38489,-3.3959 -4.05443,-3.3959 -2.93762,0 -5.58618,12.02169 -7.52008,34.13333 l -1.07285,12.26667 -8.19195,7.55329 -8.19194,7.55328 2.25375,3.11338 c 1.23957,1.71236 5.46112,6.23338 9.38123,10.04672 11.57396,11.2587 17.56669,18.89769 17.56669,22.39242 0,1.69492 -0.42467,3.34413 -0.94371,3.66492 -0.51904,0.32078 -3.35992,-1.34058 -6.31307,-3.69191 -7.75865,-6.17753 -13.06961,-8.16045 -28.47655,-10.6321 -14.46171,-2.32001 -21.06847,-4.59124 -24.459,-8.40833 -2.08809,-2.35078 -2.63762,-6.48357 -4.48437,-33.725 -0.50887,-7.50633 -0.86467,-9.03016 -1.63142,-6.98714 -0.53934,1.43708 -5.02334,8.63708 -9.96443,16 -10.71559,15.96773 -12.45346,20.98184 -9.73725,28.09412 1.01005,2.64478 4.75701,8.28705 8.32658,12.53838 10.74487,12.79706 11.54989,14.31512 11.54989,21.78014 0,12.84507 -4.29981,19.71223 -16.08054,25.68198 -6.62629,3.35779 -7.84296,6.07286 -6.3472,14.16415 1.79303,9.69941 1.41818,16.93792 -1.0025,19.3586 -3.0526,3.05261 -12.79219,7.74832 -14.61796,7.04771 -2.12182,-0.81422 -0.90102,-4.45161 2.99211,-8.91506 3.79025,-4.3455 4.02499,-9.96659 0.92275,-22.09622 -2.6961,-10.54167 -2.6882,-16.2308 0.0356,-25.60339 2.78725,-9.59102 2.15758,-12.87395 -3.51042,-18.30236 -5.94388,-5.69264 -15.87737,-13.36426 -16.49927,-12.74236 -0.27002,0.27003 1.68466,5.30154 4.34374,11.18114 2.65908,5.8796 5.37003,13.47496 6.02434,16.87858 1.34619,7.00272 0.59253,10.29998 -5.32847,23.3121 l -3.42357,7.5237 4.37904,10.28858 c 7.09161,16.66179 5.76713,23.02486 -5.95845,28.62554 -7.4567,3.56166 -14.94954,4.64058 -14.38456,2.07128 1.70916,-7.77259 1.40581,-11.54019 -1.37024,-17.01847 -1.58031,-3.11859 -3.60772,-9.57261 -4.50536,-14.34225 -1.77143,-9.41254 -2.99903,-12.30651 -7.2984,-17.20542 -2.04534,-2.33056 -2.61557,-2.62038 -2.09875,-1.06667 1.32141,3.97253 1.85796,8.93969 1.23238,11.40876 -0.34252,1.35185 -2.8011,5.76908 -5.46351,9.81606 -2.66241,4.04699 -4.84074,8.28653 -4.84074,9.42122 0,1.13468 1.44,5.34396 3.2,9.35396 1.76,4.01 3.2,8.3538 3.2,9.65289 0,5.75827 -7.19777,12.992 -17.43017,17.51725 -7.9393,3.51114 -28.15464,9.39663 -29.47417,8.58111 -2.27329,-1.40496 -0.95187,-4.62742 3.02872,-7.38598 2.26841,-1.57201 5.26841,-4.10974 6.66667,-5.63941 2.06572,-2.25986 0.27198,-1.61 -9.56906,3.46681 -9.17338,4.73239 -14.21902,8.20364 -20.8,14.30981 -12.37883,11.48571 -15.41173,13.5305 -22.02199,14.84728 -5.1114,1.01821 -56.81231,7.58358 -59.71906,7.58358 -0.59452,0 -1.08094,-1.14658 -1.08094,-2.54796 z"
       id="path1" />
    <path
       id="path2"
       style="display:inline;fill:#ffff00"
       d="M 282.50113 75.732687 C 277.37959 75.732687 274.41151 83.647688 278.03238 87.648702 C 280.33254 90.19034 283.20915 90.124288 285.86636 87.467062 C 289.76602 83.56741 287.51927 75.732687 282.50113 75.732687 z M 304.96988 76.072531 C 304.24927 76.080769 303.46207 76.38509 302.28042 76.951437 C 300.61342 77.750414 298.76918 79.774497 298.18082 81.447531 C 297.23715 84.130824 297.46556 84.793776 300.12613 87.082296 C 303.53926 90.018158 306.55121 89.716898 309.64957 86.127218 C 312.15395 83.225704 311.61039 80.184345 308.12222 77.590109 C 306.71325 76.542216 305.89637 76.061938 304.96988 76.072531 z " />
  </g>
</svg>
