<?xml version="1.0" encoding="UTF-8" standalone="no"?>
<!-- Created with Inkscape (http://www.inkscape.org/) -->

<svg
   version="1.1"
   id="svg1"
   width="257.48746"
   height="375.6507"
   viewBox="0 0 257.48746 375.6507"
   sodipodi:docname="409a.svg"
   inkscape:version="1.3.2 (091e20ef0f, 2023-11-25)"
   xmlns:inkscape="http://www.inkscape.org/namespaces/inkscape"
   xmlns:sodipodi="http://sodipodi.sourceforge.net/DTD/sodipodi-0.dtd"
   xmlns="http://www.w3.org/2000/svg"
   xmlns:svg="http://www.w3.org/2000/svg">
  <defs
     id="defs1" />
  <sodipodi:namedview
     id="namedview1"
     pagecolor="#ffffff"
     bordercolor="#000000"
     borderopacity="0.25"
     inkscape:showpageshadow="2"
     inkscape:pageopacity="0.0"
     inkscape:pagecheckerboard="0"
     inkscape:deskcolor="#d1d1d1"
     showgrid="false"
     inkscape:zoom="1.965332"
     inkscape:cx="134.83727"
     inkscape:cy="178.85019"
     inkscape:window-width="1920"
     inkscape:window-height="1011"
     inkscape:window-x="0"
     inkscape:window-y="0"
     inkscape:window-maximized="1"
     inkscape:current-layer="layer1" />
  <g
     inkscape:groupmode="layer"
     id="layer1"
     inkscape:label="Layer 1"
     transform="translate(-69.765785,-25.85761)">
    <path
       style="fill:#000000"
       d="M 229.54381,393.94207 210.08,386.37581 185.6,371.6836 c -17.15327,-10.29492 -30.04743,-18.32183 -43.08187,-26.81945 l -18.60187,-12.12724 -5.92601,-12.52845 -5.92601,-12.52846 -1.09969,-27.62315 -1.0997,-27.62314 2.44055,-8.69686 2.44054,-8.69685 4.5482,-7.66283 c 2.50151,-4.21456 4.43967,-7.75579 4.30703,-7.86941 -0.13264,-0.11362 -3.94914,-0.68728 -8.48111,-1.2748 l -8.23993,-1.06823 -3.69036,-4.02236 -3.690364,-4.02237 0.159527,-1.44 c 0.08774,-0.792 0.251754,-4.896 0.364477,-9.12 l 0.20495,-7.68 -2.105288,-3.52 C 94.896413,181.96508 80.865336,149.54987 78.246388,141.44 71.640366,120.98372 71.314893,119.7667 70.508877,112.5077 l -0.743092,-6.6923 1.454457,-4.97641 c 1.212266,-4.147766 1.897202,-5.804214 4.113341,-9.947703 3.015787,-5.638582 6.075299,-11.623609 6.549056,-12.811286 0.175514,-0.44 2.528629,-4.003007 5.229145,-7.917793 l 4.910029,-7.117794 8.408327,-6.482206 c 7.61844,-5.873264 17.80549,-12.825601 18.34349,-12.518843 0.11749,0.06699 7.74949,-2.527976 16.96,-5.7666 16.67602,-5.863671 16.7867,-5.897148 26.34637,-7.968876 5.53186,-1.198839 13.13401,-2.582588 17.93956,-3.265373 l 8.33955,-1.184906 6.70045,0.528601 c 6.46544,0.510061 7.07082,0.619605 17.26044,3.123303 10.10402,2.482662 11.05744,2.784264 22.08,6.984771 14.969,5.704421 27.80733,11.825443 39.08865,18.636574 11.22791,6.778878 14.63995,9.582581 22.22029,18.258574 5.5544,6.357226 6.20223,7.230997 8.61699,11.622294 1.93531,3.519396 3.13354,6.238993 4.62986,10.508274 1.11034,3.168 3.96094,11.087999 6.33467,17.599999 2.37373,6.512 4.49235,12.69542 4.70804,13.74092 0.2157,1.04551 0.507,2.12551 0.64735,2.4 0.14034,0.2745 1.68442,4.63808 3.43128,9.69685 l 3.17611,9.19778 -3.0281,6.87559 -3.0281,6.87558 -5.15852,4.40571 c -2.83718,2.42314 -5.49883,4.7399 -5.91476,5.14834 -0.41594,0.40845 -1.08859,0.86899 -1.49479,1.02343 -0.88789,0.33757 -1.00454,1.17273 -1.25086,8.9558 -0.0919,2.904 -0.40029,11.256 -0.68531,18.56 l -0.5182,13.28 -3.21882,8.23916 -3.21882,8.23917 4.23238,14.80084 c 2.50476,8.75927 4.50499,15.18165 4.90023,15.73376 0.49389,0.68992 1.39962,4.4825 3.47716,14.56 3.93601,19.09241 7.26873,34.32584 7.655,34.99004 0.22958,0.39476 0.087,3.58416 -0.47716,10.67404 -0.44251,5.56108 -0.80632,10.41975 -0.80847,10.79703 -0.002,0.37728 -3.60215,6.94558 -8,14.59621 -5.35988,9.32421 -7.9961,14.21305 -7.9961,14.82871 0,0.50515 -0.27044,1.15754 -0.60098,1.44975 -0.33054,0.29221 -6.46288,7.2273 -13.62742,15.4113 -7.16455,8.184 -13.5421,15.348 -14.17234,15.92 -0.63024,0.572 -1.44589,1.04405 -1.81257,1.04901 -0.36668,0.005 -5.80397,1.56833 -12.08288,3.47416 l -11.41619,3.46514 z m 19.91569,-7.12149 c 3.10027,-5.01196 6.20779,-10.82318 12.88767,-24.10057 3.54184,-7.04 7.06715,-13.92714 7.83403,-15.30474 l 1.39433,-2.50474 0.96315,2.02474 c 2.3333,4.90506 3.12314,8.67883 3.10276,14.82474 -0.0177,5.34762 -0.67322,9.25576 -2.34463,13.97896 -0.5153,1.45618 -0.90299,2.68152 -0.86154,2.72297 0.0415,0.0415 2.30048,-1.84072 5.02005,-4.18261 9.2064,-7.92786 14.21429,-13.81879 16.58168,-19.50551 1.81808,-4.36723 2.11269,-6.15447 2.0924,-12.69381 -0.0162,-5.21225 -0.12021,-6.37057 -0.87023,-9.68871 -1.06279,-4.70189 -3.07192,-10.87916 -5.92627,-18.22095 -2.06249,-5.30504 -2.14739,-5.6212 -1.33137,-4.95835 0.47938,0.3894 2.72714,2.27124 4.99503,4.18186 2.2679,1.91062 5.70761,4.53078 7.64381,5.82257 3.38122,2.25589 8.63634,4.98187 10.47963,5.4361 0.85914,0.21171 0.87987,0.18379 0.87414,-1.17783 -0.009,-2.08404 -0.83979,-7.45332 -1.60265,-10.3547 -1.73947,-6.61566 -4.06944,-11.18468 -10.37158,-20.33839 -5.29726,-7.69413 -7.58747,-11.44253 -9.62657,-15.75579 -2.8265,-5.97883 -3.99334,-10.99778 -3.99334,-17.17662 0,-3.56409 -0.0493,-3.8456 -1.00976,-5.76769 -0.55537,-1.1114 -1.90813,-2.96895 -3.00613,-4.12791 l -1.99636,-2.10719 -2.67387,1.07951 c -3.68543,1.4879 -12.7918,5.86025 -12.6795,6.08796 0.0505,0.10237 0.79099,1.54827 1.64557,3.21312 3.45417,6.72927 6.0296,14.92824 7.08385,22.55167 0.87152,6.30215 0.86456,6.3053 -3.0438,1.37929 -1.848,-2.32919 -4.44,-5.37314 -5.76,-6.76435 -2.41554,-2.54586 -5.90153,-5.63361 -6.36018,-5.63361 -0.13583,0 -1.09372,2.592 -2.12866,5.76 -1.6894,5.17135 -2.39116,6.71769 -2.39116,5.26899 0,-2.53742 -9.93201,-22.22899 -11.21183,-22.22899 -0.50437,0 -4.94152,3.78747 -6.25326,5.33766 -3.04166,3.5946 -5.69774,7.63518 -9.29296,14.13694 -1.54708,2.79781 -1.66879,2.9345 -1.85214,2.08 -0.24234,-1.1294 -0.80648,-5.49 -0.81993,-6.33764 -0.0149,-0.94263 -1.67788,1.465 -3.34118,4.83744 -2.58083,5.23279 -3.86864,9.90158 -5.67824,20.5856 l -1.05689,6.24 -0.40146,-2.20014 c -1.0705,-5.86675 -1.94216,-15.02721 -2.06676,-21.71986 -0.0418,-2.244 -0.1709,-4.08 -0.28695,-4.08 -0.11605,0 -1.51111,1.69746 -3.10013,3.77214 -4.26525,5.56881 -4.06483,5.54614 -3.79572,0.42943 0.25016,-4.75625 0.82668,-9.52467 1.92598,-15.92986 0.545,-3.17555 0.6329,-4.27171 0.34252,-4.27171 -0.62453,0 -5.38414,2.00623 -10.17891,4.29051 -2.43533,1.16022 -4.48424,2.10949 -4.55313,2.10949 -0.0689,0 0.24795,-1.044 0.70407,-2.32 1.67982,-4.69923 5.54139,-11.45259 10.17821,-17.80027 1.17303,-1.60584 1.2048,-1.70488 0.47767,-1.48884 -1.58354,0.47048 -7.2707,3.3123 -10.21896,5.10632 -1.672,1.01741 -5.056,3.25011 -7.52,4.96155 -2.464,1.71145 -4.65936,3.21647 -4.87859,3.3445 -0.62079,0.36254 1.30661,-4.59677 3.72388,-9.58178 1.19975,-2.47419 3.50717,-6.7014 5.12759,-9.39379 1.62042,-2.69239 2.89233,-4.94915 2.82646,-5.01501 -0.34732,-0.34733 -10.52897,5.17955 -16.22055,8.80496 -3.59766,2.29163 -6.5913,4.11652 -6.65251,4.0553 -0.13078,-0.13077 0.72709,-3.4019 2.52627,-9.63294 0.71147,-2.464 1.77576,-6.3359 2.36509,-8.60422 l 1.0715,-4.12423 -3.74457,3.76425 c -4.25792,4.2803 -8.86384,7.87145 -13.41802,10.46178 -4.98996,2.8382 -4.7686,3.10119 -2.80076,-3.32761 0.93099,-3.04148 3.2053,-10.35397 5.05401,-16.24997 1.84872,-5.896 3.95774,-12.76188 4.68671,-15.25752 l 1.32539,-4.53753 -0.94441,-1.86247 c -0.51943,-1.02436 -2.12416,-3.80648 -3.56608,-6.18248 -3.15304,-5.19557 -3.14279,-4.48396 -0.18505,-12.84529 1.14297,-3.23109 2.31912,-6.73871 2.61367,-7.79471 0.67054,-2.404 1.0485,-11.50617 0.46977,-11.31326 -0.20451,0.0682 -3.76258,3.50554 -7.90683,7.6386 -5.86346,5.84765 -7.7421,7.92285 -8.46861,9.35472 -1.63585,3.22405 -4.35857,9.64103 -9.90215,23.33765 -8.8727,21.92194 -12.7962,30.10912 -18.83463,39.30229 -0.98263,1.496 -1.91713,2.92709 -2.07667,3.18019 -0.9233,1.46476 9.82928,-7.79515 15.75485,-13.56778 l 4.58596,-4.4676 -0.80024,1.80947 c -1.18271,2.67433 -4.27179,7.9378 -8.75792,14.92259 -4.96861,7.73601 -7.74725,12.56278 -9.18952,15.96313 -0.61587,1.452 -1.06521,2.64 -0.99854,2.64 0.0667,0 0.90331,-1.116 1.8592,-2.48 4.47535,-6.38609 11.72594,-14.42026 17.6753,-19.58549 3.75535,-3.26039 7.50233,-6.22445 7.65351,-6.05433 0.0586,0.0659 -0.96948,1.99182 -2.28455,4.27982 -3.33302,5.79888 -9.20632,17.72654 -11.26714,22.88163 -6.73536,16.84827 -9.65505,31.41018 -9.20093,45.88952 0.16753,5.34163 0.85084,12.12725 1.26269,12.5391 0.0769,0.0769 0.22948,-1.12241 0.33901,-2.66519 1.03817,-14.62355 9.38454,-30.35342 20.83967,-39.27521 3.33022,-2.59373 10.09774,-6.68783 10.09774,-6.10875 0,0.0835 -1.46135,1.98375 -3.24745,4.22271 -4.17732,5.23647 -6.34278,8.43237 -8.14498,12.02078 -3.91739,7.79998 -5.60645,17.75626 -4.62504,27.26265 0.5332,5.16487 0.77299,5.70242 1.29292,2.89847 0.64127,-3.45836 2.80664,-11.137 4.23698,-15.02481 1.91609,-5.20811 6.42926,-14.56588 6.83116,-14.16397 0.0689,0.0689 -0.23112,3.57176 -0.66668,7.78416 -1.15595,11.17944 -1.63539,21.14053 -1.12812,23.4388 0.91422,4.14203 5.179,15.74011 5.78787,15.74011 0.11894,0 0.2385,-1.116 0.26568,-2.48 0.18287,-9.17763 2.55982,-23.15029 5.43003,-31.92 l 0.94259,-2.88 0.0325,3.36547 c 0.12141,12.5636 2.01566,24.81496 5.14229,33.25844 2.03181,5.48691 5.89258,12.30705 8.862,15.65493 l 1.22823,1.38477 -0.1075,-6.5118 c -0.0591,-3.58149 0.0542,-8.0958 0.25174,-10.03181 0.49352,-4.83575 2.02475,-12.1543 3.49273,-16.69357 l 1.22452,-3.78643 0.19372,1.44 c 1.61887,12.03322 2.72,17.37196 4.90661,23.78923 3.14438,9.22813 8.20883,17.91612 13.34866,22.89943 1.6755,1.62448 1.48283,1.88301 2.12291,-2.84865 0.71962,-5.31968 3.38766,-12.01357 6.88744,-17.28 3.90949,-5.88296 10.27921,-11.58557 16.4063,-14.68803 l 1.36712,-0.69225 -2.05224,2.97014 c -4.06165,5.87827 -6.9,12.10407 -8.21084,18.01014 -0.82504,3.71726 -0.99132,10.00346 -0.34704,13.12 1.1443,5.53529 3.55577,10.5738 7.29511,15.24236 l 0.93101,1.16237 -0.13399,-6.63852 c -0.19438,-9.62995 0.84208,-17.08477 3.48518,-25.06749 1.2413,-3.74897 5.09701,-12.05581 6.31563,-13.60656 0.57036,-0.7258 0.57066,-0.59856 0.01,4.32 -0.74897,6.57088 -1.4474,13.86639 -1.7017,17.77535 l -0.20217,3.10752 2.40835,2.57526 c 4.24231,4.53631 6.76529,8.95326 8.63214,15.11217 0.93538,3.0859 1.38025,5.44162 2.63206,13.93754 0.0843,0.572 0.20999,1.04 0.27935,1.04 0.0694,0 0.94434,-1.32275 1.94438,-2.93943 z m 54.19879,-105.52719 c -0.34611,-2.35714 -0.92285,-5.95243 -1.28165,-7.98955 -0.3588,-2.03711 -1.22125,-6.94384 -1.91655,-10.90384 -0.69531,-3.96 -1.34104,-7.53606 -1.43496,-7.94681 -0.35729,-1.56246 0.43089,-0.28337 1.78057,2.88959 1.33311,3.13403 2.47528,5.37722 2.73791,5.37722 0.39753,0 -1.11305,-6.81519 -2.89625,-13.06693 -1.69374,-5.93809 -2.28125,-8.71494 -3.02402,-14.29307 -0.34368,-2.58099 -2.06631,-6.70071 -3.51177,-8.39849 l -0.61172,-0.7185 -1.63381,1.09947 c -1.96141,1.31994 -3.59389,1.61414 -7.52136,1.35549 -3.64777,-0.24023 -7.09624,-1.23476 -12.99238,-3.74699 -5.4482,-2.32137 -9.37713,-3.71151 -11.30828,-4.0011 -0.98351,-0.14749 -2.81091,0.0846 -6.26286,0.79534 -5.50041,1.13254 -7.72062,1.87338 -9.5075,3.17247 -2.0662,1.50216 -22.52123,27.63356 -28.37061,36.24361 -4.38311,6.45176 -4.22457,6.0903 -1.98305,4.52128 1.056,-0.73917 3.20381,-2.45002 4.7729,-3.80189 1.56909,-1.35187 2.76793,-2.25606 2.66408,-2.00932 -1.68704,4.00827 -2.5716,6.42798 -2.94629,8.0595 -0.55091,2.39885 -0.8367,2.70093 4.21327,-4.45342 1.97118,-2.7926 4.01733,-5.58145 4.547,-6.19745 l 0.96303,-1.12 0.013,2.99502 0.013,2.99503 1.87102,-2.83503 c 1.02906,-1.55926 2.64348,-3.61381 3.58759,-4.56568 1.57904,-1.59201 5.1644,-4.18934 5.78296,-4.18934 0.14428,0 -0.16986,1.17218 -0.6981,2.60485 -0.52824,1.43267 -0.91996,2.64533 -0.87048,2.69481 0.0495,0.0495 1.66448,-0.97817 3.5889,-2.28366 4.21609,-2.86011 8.20808,-4.95536 11.17182,-5.86368 1.20654,-0.36977 2.32547,-0.67232 2.4865,-0.67232 0.16104,0 -0.008,0.58996 -0.37603,1.31101 -0.36785,0.72106 -0.6182,1.36163 -0.55634,1.4235 0.0619,0.0619 2.55592,-1.01336 5.54233,-2.38941 5.51866,-2.54281 10.91627,-4.69038 12.67038,-5.0412 l 0.96884,-0.19377 -0.9936,1.56494 c -0.54647,0.86071 -1.22079,1.88537 -1.49847,2.27702 l -0.50487,0.71208 1.45603,-0.49611 c 2.82896,-0.96393 5.58181,-4.13633 6.43554,-7.41636 l 0.39346,-1.5117 2.41946,4.8 c 1.3307,2.64 2.94331,5.376 3.58358,6.08 l 1.16414,1.28 -0.21276,-2.07765 -0.21276,-2.07765 2.36043,2.10915 c 5.93146,5.3 10.50028,12.40533 12.56122,19.53493 0.75998,2.62906 1.41891,6.67122 1.0875,6.67122 -0.0849,0 -0.84584,-1.044 -1.69096,-2.32 -2.08591,-3.14943 -4.34944,-6.07455 -4.54742,-5.87657 -0.48452,0.48452 3.17817,10.1495 5.41032,14.27657 1.77323,3.27855 3.50609,6.14035 3.63813,6.00831 0.0601,-0.0601 -0.17396,-2.03778 -0.52007,-4.39492 z m -79.17614,-45.09937 c 10.72154,-14.30843 16.63271,-21.31051 24.35215,-28.84638 7.43252,-7.25576 10.69861,-9.2804 15.36824,-9.52669 2.97703,-0.15702 4.68404,0.2821 8.27746,2.12937 2.36757,1.21709 7.12817,5.62796 8.25536,7.64888 0.71438,1.28079 0.87141,1.33501 -4.57536,-1.5797 -5.53194,-2.96029 -7.82314,-3.99211 -10.22054,-4.60271 -2.93491,-0.74751 -4.37423,-0.48027 -5.83231,1.08286 -1.8782,2.01354 -2.33729,4.59387 -1.24526,6.99913 0.86584,1.90709 1.89841,2.34122 5.56852,2.34122 5.30583,0 10.20058,2.08672 16.60318,7.07823 4.43781,3.45976 5.27913,3.71905 9.73861,3.00145 4.52127,-0.72754 6.85567,-2.21449 8.18128,-5.21124 1.54287,-3.48793 1.29846,-6.27374 -0.98325,-11.20699 -1.96423,-4.24684 -3.13859,-7.90571 -5.36055,-16.70145 -0.9559,-3.784 -2.11398,-8.12421 -2.57352,-9.64492 l -0.83551,-2.76492 -3.08032,-0.22365 c -1.69418,-0.12302 -4.2267,-0.42043 -5.62782,-0.66093 -1.40111,-0.24049 -2.58543,-0.39932 -2.63181,-0.35294 -0.0464,0.0464 0.55702,1.66312 1.34088,3.59276 0.78385,1.92965 1.51675,3.96622 1.62865,4.52571 l 0.20345,1.01727 -3.15684,-1.74601 c -3.36529,-1.86131 -7.75774,-3.80813 -8.01392,-3.55195 -0.0852,0.0852 0.50264,0.96208 1.30624,1.94869 1.30582,1.60319 2.43084,3.37824 2.43084,3.83535 0,0.0914 -0.828,-0.33487 -1.84,-0.94734 -1.012,-0.61247 -2.992,-1.57276 -4.4,-2.13398 -2.27624,-0.90731 -2.91469,-1.02073 -5.76,-1.02327 -2.65311,-0.002 -3.59965,0.14085 -5.53848,0.8381 -3.07101,1.10441 -6.27443,2.96189 -10.4327,6.04933 -1.86385,1.38388 -3.38882,2.4387 -3.38882,2.34405 0,-0.34544 2.20301,-3.56918 4.25033,-6.21966 1.15484,-1.49507 2.06012,-2.75791 2.01173,-2.8063 -0.0484,-0.0484 -1.08116,0.15292 -2.29503,0.44736 -3.15874,0.7662 -8.22569,0.68867 -11.48703,-0.17578 -1.408,-0.3732 -4.792,-1.73835 -7.52,-3.03366 -8.53513,-4.05266 -17.22845,-6.34241 -26.96862,-7.10331 -1.54475,-0.12068 -2.7394,-0.28864 -2.65479,-0.37326 0.47166,-0.47165 4.03054,-0.81243 10.37125,-0.99309 l 7.14783,-0.20365 -2.66783,-1.03037 c -6.59509,-2.54717 -12.13694,-3.40864 -22.08029,-3.43234 -3.98884,-0.01 -7.3484,0.0783 -7.46568,0.19507 -0.3557,0.35421 3.84641,8.27177 6.53463,12.31247 4.38353,6.58895 10.36812,13.59171 18.39092,21.51982 l 4.33583,4.28464 1.36837,-0.18823 c 1.86179,-0.2561 8.56627,-2.31263 15.04838,-4.61592 2.948,-1.04752 5.36,-1.8686 5.36,-1.82463 0,0.044 -0.88696,1.56935 -1.97102,3.38972 -2.6736,4.48955 -5.75348,10.93916 -7.1175,14.90482 -1.72961,5.02859 -2.43148,9.2462 -2.43148,14.6111 0,4.98138 -0.11232,5.48941 -2.36625,10.70221 -0.99324,2.29715 -1.44033,3.68691 -1.03746,3.22498 0.064,-0.0733 2.53259,-3.35803 5.48586,-7.29932 z M 129.6,214.49968 l 1.44,-0.6426 -1.98467,-0.56641 c -1.09157,-0.31152 -2.19493,-0.80136 -2.45191,-1.08853 -0.25698,-0.28718 -2.58808,-4.73793 -5.18023,-9.89056 -2.59215,-5.15263 -4.77902,-9.30241 -4.8597,-9.22173 -0.53635,0.53635 6.9413,20.85065 8.00374,21.7435 0.87894,0.73865 2.93535,0.60231 5.03277,-0.33367 z M 302.19266,200.4 c 1.82257,-5.79117 1.98631,-12.99724 0.40537,-17.84 -0.45965,-1.408 -0.96393,-2.7581 -1.12062,-3.00022 -0.22112,-0.34167 -0.83079,0.0153 -2.72328,1.59464 -1.34111,1.11918 -2.51653,2.28109 -2.61204,2.58202 -0.17995,0.56698 0.45197,4.30483 1.30737,7.73317 0.85731,3.43602 3.45169,11.41039 3.71225,11.41039 0.13775,0 0.60167,-1.116 1.03095,-2.48 z m -169.306,-0.2856 c 0.48766,-0.10838 0.93771,-0.28646 1.00009,-0.39573 0.0624,-0.10927 -1.30381,-2.14267 -3.03601,-4.51867 -5.70674,-7.82777 -9.49876,-13.58429 -9.87925,-14.99734 -0.74185,-2.75501 0.41227,-5.69609 4.1564,-10.59187 l 2.31664,-3.02921 -1.24226,-1.08039 c -1.75259,-1.52421 -3.40806,-2.30119 -4.90302,-2.30119 -1.1773,0 -1.34125,0.10784 -1.93577,1.27318 -0.83555,1.63782 -1.40933,4.16807 -2.25109,9.92682 -1.17425,8.03347 -0.53634,9.99302 6.56289,20.16 1.65907,2.376 3.31414,4.70676 3.67793,5.17945 0.72925,0.94757 1.82155,1.20209 3.52679,0.82179 0.616,-0.13738 1.519,-0.33846 2.00666,-0.44684 z m 112.16621,-22.6807 c 1.40996,-0.26746 3.40587,-0.77347 4.43535,-1.12447 2.24756,-0.76629 6.54643,-2.62125 6.40425,-2.76343 -0.0557,-0.0557 -1.59841,0.0414 -3.42821,0.2157 -3.8357,0.36547 -8.77525,0.003 -13.10903,-0.96256 -2.96601,-0.66067 -8.22199,-2.33536 -9.67523,-3.08278 -1.69293,-0.87069 -0.85696,0.1743 1.86518,2.33155 1.50985,1.19653 2.59284,2.22629 2.40664,2.28835 -0.1862,0.0621 -1.45753,-0.18015 -2.82518,-0.53826 -4.48153,-1.17345 -4.24045,-1.18244 -2.80664,0.10467 3.79904,3.41035 10.22326,4.76609 16.73287,3.53123 z M 242.88,168.4494 c 0,-0.30593 -1.37093,-2.17327 -1.90825,-2.59922 -0.57662,-0.45711 -2.25175,-0.54366 -2.25175,-0.11635 0,0.85645 0.58128,1.45989 2.04959,2.12773 1.73218,0.78786 2.11041,0.89322 2.11041,0.58784 z m 6.76455,-0.42668 c 0.89405,-0.73054 0.49131,-1.42228 -0.72764,-1.24981 -0.55447,0.0785 -0.78399,0.34245 -0.85816,0.98709 -0.1223,1.06293 0.48363,1.16331 1.5858,0.26272 z m 39.9621,-2.60041 c 2.50641,-2.5544 4.42267,-6.94947 5.58047,-12.79913 0.78792,-3.98093 0.87874,-4.20214 1.17548,-2.86318 0.92712,4.18334 0.58125,10.17113 -0.84738,14.66989 -0.42313,1.33246 -0.71748,2.47452 -0.65409,2.5379 0.24055,0.24056 3.33367,-1.54605 6.21727,-3.59115 1.64912,-1.16958 3.07303,-2.05188 3.16425,-1.96066 0.0912,0.0912 -0.43335,1.41465 -1.16572,2.94095 -0.73237,1.52629 -1.26315,2.84351 -1.17952,2.92715 0.2965,0.29649 5.68389,-2.96169 8.11508,-4.90782 2.87131,-2.29845 6.63244,-6.1674 8.75909,-9.01019 l 1.49158,-1.99386 -0.62893,-1.6861 c -0.34592,-0.92736 -2.0514,-4.63811 -3.78996,-8.24611 -3.88687,-8.06632 -3.95965,-8.24575 -5.11929,-12.62122 -0.51715,-1.95127 -1.57795,-5.41774 -2.35734,-7.70327 -0.77939,-2.28553 -1.51875,-4.91364 -1.64303,-5.84025 -0.18725,-1.39608 -0.50556,-2.01535 -1.85783,-3.6144 -2.94167,-3.4785 -5.02,-4.91272 -9.49347,-6.55128 -4.01239,-1.46968 -5.094,-1.60022 -6.6927,-0.80773 -0.8029,0.398 -5.11708,1.39266 -7.08061,1.63248 -1.74686,0.21335 -3.56686,-0.29615 -7.52,-2.10523 -3.87811,-1.77474 -5.16864,-2.03912 -11.60704,-2.37784 -3.47212,-0.18266 -7.12944,-0.40977 -8.12736,-0.50468 l -1.8144,-0.17257 -2.0256,1.86602 c -1.11408,1.0263 -3.35592,2.91557 -4.98187,4.19836 -1.62596,1.2828 -3.25636,2.75378 -3.62313,3.26885 -0.58696,0.82432 -1.9006,4.68309 -1.9006,5.58297 0,0.18273 0.828,0.75919 1.84,1.28102 1.012,0.52182 2.488,1.39784 3.28,1.9467 0.792,0.54886 2.808,1.82891 4.48,2.84457 1.672,1.01565 3.18571,2.00658 3.36379,2.20207 0.17809,0.19549 1.51717,0.98106 2.97574,1.74572 1.45857,0.76465 2.99832,1.73665 3.42167,2.16 0.42334,0.42334 1.03511,0.76971 1.35949,0.76971 0.32438,0 2.02292,0.99746 3.77454,2.21657 8.61654,5.99703 11.06735,7.55182 14.84596,9.41828 2.25079,1.11179 5.32043,2.42093 6.82143,2.9092 l 2.72908,0.88776 2.63821,-0.53457 c 1.45101,-0.29402 6.29038,-1.73303 10.75415,-3.19782 4.46377,-1.46478 8.11594,-2.6192 8.11594,-2.56538 0,0.22913 -5.98836,3.49785 -9.02225,4.92475 -4.14746,1.95064 -8.13462,3.21746 -10.81775,3.43707 -1.85725,0.15201 -2.54263,0.0171 -6.4,-1.26 -5.62861,-1.86349 -10.62025,-4.13959 -19.84,-9.04672 -15.84056,-8.43099 -21.79488,-10.89818 -30.04107,-12.44756 -7.96855,-1.49722 -14.25692,-0.70957 -19.99762,2.5048 -2.54026,1.42236 -6.05553,4.4178 -7.49666,6.38806 l -1.13698,1.55443 1.77508,-1.00179 c 3.9361,-2.2214 10.04055,-3.86708 14.34445,-3.86708 2.42828,0 6.31784,0.66227 8.00589,1.36315 l 1.10691,0.45959 -1.44,0.22885 c -0.792,0.12586 -2.808,0.44472 -4.48,0.70858 -10.76831,1.69934 -15.32017,4.424 -26.80675,16.04599 -3.74372,3.78785 -6.7601,6.93366 -6.70307,6.99069 0.057,0.057 2.08379,-0.75806 4.5039,-1.81131 10.21804,-4.44695 16.40315,-6.05477 23.38469,-6.07886 l 3.86123,-0.0133 -1.2471,-1.10131 c -1.7688,-1.56202 -4.30254,-2.44062 -7.7129,-2.67452 l -2.88,-0.19753 1.52164,-0.91136 c 2.34658,-1.40546 4.66398,-2.17252 7.11836,-2.35619 1.87271,-0.14014 2.65977,-0.0266 4.8,0.6927 3.50769,1.17881 9.11656,4.13902 16.16,8.52879 7.22961,4.50579 9.92,6.0871 9.92,5.83059 0,-0.33048 -2.52115,-4.24406 -5.11791,-7.94453 -1.35857,-1.936 -2.74273,-3.94554 -3.07592,-4.46564 l -0.6058,-0.94565 2.34762,1.26565 c 3.13598,1.69066 7.19901,4.78271 13.64699,10.38564 2.9369,2.552 6.58749,5.53905 8.11242,6.63788 5.50608,3.96756 12.43272,6.66716 14.96355,5.83191 3.44803,-1.13795 5.43358,-5.0527 6.08116,-11.98979 l 0.23898,-2.56 0.60008,1.92 c 1.35525,4.33629 1.02316,8.70534 -0.96561,12.70358 -0.63919,1.28503 -1.21635,2.44719 -1.28257,2.58257 -0.30435,0.62214 2.48928,-1.34468 3.78366,-2.66384 z m -9.21765,-33.0659 c -7.05718,-3.40939 -9.77829,-4.86565 -9.22232,-4.93551 0.43377,-0.0545 1.69872,0.25445 2.811,0.68657 8.42587,3.27346 10.64317,4.11009 12.84191,4.84549 l 2.49959,0.83602 1.73274,-0.79327 c 0.95301,-0.4363 4.04497,-2.19005 6.87102,-3.89722 2.82605,-1.70717 5.21299,-3.02923 5.30431,-2.93791 0.31273,0.31274 -7.80308,7.39917 -11.70725,10.22235 l -1.12,0.80989 z M 143.63005,160.08 c -1.28386,-5.94394 -3.14716,-12.34728 -3.85505,-13.2481 -0.22825,-0.29045 -2.18469,-1.87445 -4.34765,-3.52 -9.28935,-7.06718 -13.02026,-9.16717 -15.58276,-8.77095 -1.87602,0.29008 -4.45695,1.64085 -5.58074,2.92078 -0.84909,0.96706 -2.43682,3.62995 -2.19035,3.67359 0.0476,0.008 0.87613,0.0839 1.84123,0.16779 2.48707,0.2161 4.02227,0.67752 6.40527,1.92517 4.91586,2.57375 11.18898,8.13683 19.90469,17.65172 2.45857,2.684 4.50659,4.88 4.55116,4.88 0.0446,0 -0.47103,-2.556 -1.1458,-5.68 z m -26.88156,-6.92068 c 0.82079,-1.85244 0.86513,-2.68904 0.19337,-3.64812 -0.89724,-1.28097 -1.30351,-0.83411 -2.48098,2.7288 -1.21903,3.68869 -1.96356,7.20685 -2.28554,10.8 l -0.20072,2.24 2.04117,-5.28 c 1.12265,-2.904 2.35236,-5.9823 2.7327,-6.84068 z M 154.75583,152.32 c 3.23141,-4.57366 6.30475,-8.11715 8.96066,-10.33147 L 166.10158,140 l -1.21079,-0.20871 c -0.66593,-0.11479 -2.68679,-0.31199 -4.49079,-0.43822 -1.804,-0.12623 -3.28,-0.28635 -3.28,-0.3558 0,-0.34639 2.40325,-2.27149 5.12,-4.10131 2.80691,-1.89056 8.60781,-4.94255 14.36585,-7.55824 2.24616,-1.02036 2.31901,-1.08598 1.44,-1.29697 -0.50921,-0.12223 -2.86985,-0.3861 -5.24585,-0.58639 -7.87439,-0.66377 -16.18748,-2.01213 -15.8429,-2.56967 0.0797,-0.12895 0.90496,-0.3241 1.8339,-0.43367 6.86296,-0.80945 15.32354,-4.784 19.71131,-9.25984 l 1.7023,-1.73648 -2.9823,-1.92766 c -8.5911,-5.55301 -19.89736,-10.120963 -30.27786,-12.232851 -3.97165,-0.808023 -9.27248,-1.603079 -11.02234,-1.653209 -1.27997,-0.03667 -1.24632,-0.0573 0.55789,-0.342109 2.26767,-0.357968 13.93472,-0.102079 17.6,0.386014 4.89781,0.652225 11.86823,2.211127 16.3674,3.660492 8.29251,2.671353 12.68755,4.731113 27.23143,12.762153 l 9.03882,4.99119 5.27443,-2.38936 c 2.90093,-1.31415 5.42146,-2.38936 5.60117,-2.38936 0.98163,0 -0.46806,-3.13102 -2.95816,-6.38902 -2.28366,-2.98791 -2.39174,-3.07696 -7.96213,-6.560003 -3.10587,-1.942036 -5.91387,-3.76299 -6.24,-4.046563 -1.10953,-0.964755 -3.67913,-2.293739 -4.65455,-2.40731 -0.53478,-0.06227 -3.1517,-0.840305 -5.81537,-1.728976 -12.43373,-4.148219 -21.90582,-5.750571 -33.96108,-5.745046 -18.87481,0.0086 -36.01543,4.622632 -51.61524,13.894008 -3.94947,2.34727 -9.741808,6.49909 -12.066719,8.64915 l -1.6,1.47966 1.308461,-0.78443 c 2.414657,-1.4476 8.420188,-4.3541 11.680288,-5.65292 7.07404,-2.81829 13.21407,-4.120669 20.45125,-4.337981 l 4.96,-0.148934 -3.36,1.233899 c -7.01895,2.577586 -12.63364,5.373386 -18.4,9.162176 -4.75171,3.12211 -7.708571,5.56027 -11.529595,9.50706 -3.012991,3.11216 -6.503727,7.31523 -6.075443,7.31523 0.105802,0 0.942218,-0.54835 1.858703,-1.21857 9.356295,-6.84212 22.538615,-11.61437 35.607275,-12.89051 4.76025,-0.46483 15.75012,-0.20736 20.13906,0.47181 3.80952,0.58952 12,2.46741 12,2.75134 0,0.22563 -4.61995,1.36248 -8.48,2.08672 -4.20922,0.78975 -13.2337,1.70552 -22.08,2.24058 -4.576,0.27677 -8.608,0.53964 -8.96,0.58414 -0.8806,0.11133 6.76822,2.61343 17.32811,5.66841 4.84944,1.40294 9.01841,2.66343 9.26438,2.80108 0.48834,0.27329 0.256,0.85385 -1.59483,3.985 -1.07235,1.81416 -1.21201,1.78541 3.68919,0.75959 1.99824,-0.41823 4.29528,-0.85578 5.10454,-0.97232 l 1.47139,-0.2119 -0.4454,3.29231 c -0.24497,1.81078 -0.87537,5.78188 -1.40089,8.82467 -0.8349,4.83418 -1.93024,12.32452 -1.87871,12.84731 0.0224,0.22702 0.68276,-0.64481 3.37805,-4.45966 z m 79.85652,-47.04 c 2.1474,-3.95383 4.37686,-6.706052 6.00361,-7.411335 1.20187,-0.521072 1.34702,-0.677903 0.96,-1.037248 -0.72909,-0.676964 -17.26896,-15.908601 -27.29952,-25.140254 -7.59258,-6.987842 -9.60349,-8.670111 -11.49909,-9.619786 -1.26354,-0.633021 -4.38535,-2.246204 -6.93735,-3.584851 -6.97729,-3.659927 -13.25535,-5.646785 -22.145,-7.008372 -6.44357,-0.986932 -18.33905,-0.994388 -25.53597,-0.01601 -14.33839,1.949227 -26.81039,5.732472 -36.7427,11.145499 -1.46502,0.798424 -2.60375,1.511605 -2.5305,1.584848 0.0732,0.07324 1.05589,-0.284283 2.18367,-0.794501 2.97922,-1.347832 10.25546,-3.720344 15.28533,-4.983979 C 142.41634,54.378937 158.00387,54.07632 172,57.527854 l 3.52,0.868054 -7.68,0.207116 c -7.84339,0.211522 -13.81304,0.778577 -20.12905,1.912052 -17.68994,3.174646 -32.63962,9.870035 -44.20332,19.796959 -2.28575,1.962215 -5.907629,5.944346 -5.907629,6.49523 0,0.08608 1.603827,-0.915074 3.564059,-2.224796 7.5644,-5.054127 15.19014,-8.220754 25.28401,-10.499311 8.3526,-1.885487 11.7628,-2.213784 23.15193,-2.228814 10.46809,-0.01381 12.27272,0.10663 19.52,1.302817 11.19219,1.847304 24.1941,5.85787 30.60812,9.441371 1.87446,1.04726 8.08102,5.175015 13.79234,9.172789 10.10522,7.073388 10.45558,7.354657 13.04028,10.468679 1.46083,1.76 3.3893,3.95999 4.28548,4.88886 1.88222,1.95088 1.63704,2.07125 3.76613,-1.84886 z M 287.04,92.972125 c 3.06614,-0.511834 5.81583,-1.081282 5.97114,-1.236597 0.2688,-0.268794 -5.88979,-7.49084 -9.18813,-10.774731 -4.83506,-4.813879 -8.73481,-7.928588 -14.2033,-11.344096 -2.45316,-1.532196 -5.16874,-3.42276 -6.03461,-4.201255 -0.86587,-0.778495 -1.87095,-1.415445 -2.23351,-1.415445 -0.36256,0 -3.76699,-1.856648 -7.56539,-4.125885 -16.71631,-9.986629 -25.7046,-14.374975 -36.0262,-17.589055 -16.95004,-5.278135 -33.55175,-6.7062 -48.42261,-4.16527 -4.12664,0.705104 -5.63348,1.24021 -3.49239,1.24021 2.21982,0 8.18629,0.979081 12.60646,2.068685 13.25979,3.268637 26.32944,9.634166 39.87698,19.421945 2.85536,2.06293 7.42356,5.334374 10.15156,7.269876 5.41363,3.840941 7.34101,5.636063 17.92,16.690376 l 6.88,7.189118 6.85036,0.05384 c 3.7677,0.02961 7.3317,0.144134 7.92,0.2545 1.29084,0.242162 1.38224,-0.228816 0.44505,-2.293176 -1.11484,-2.455662 -12.52291,-13.453888 -18.94036,-18.259905 -0.76728,-0.574611 -2.11829,-1.596064 -3.00225,-2.269896 -0.88395,-0.673831 -3.67694,-2.543695 -6.20663,-4.155253 -2.5297,-1.611558 -4.31446,-2.930105 -3.96614,-2.930105 0.34832,0 0.72313,0.08982 0.83292,0.199611 0.10978,0.109787 1.24978,0.545583 2.53333,0.968437 1.28355,0.422854 2.62172,0.897017 2.97372,1.053695 0.352,0.156678 1.432,0.620415 2.4,1.030528 1.84092,0.779939 5.3354,2.534716 9.10126,4.570254 2.42503,1.310789 7.75326,4.895659 10.95017,7.36735 5.83096,4.508212 13.5946,12.130376 14.18852,13.929948 0.36474,1.105186 0.55081,1.256965 1.8824,1.535467 2.09226,0.437596 2.7331,0.428404 5.79765,-0.08317 z"
       id="path1" />
  </g>
</svg>
