<?xml version="1.0" encoding="UTF-8" standalone="no"?>
<!-- Created with Inkscape (http://www.inkscape.org/) -->

<svg
   version="1.1"
   id="svg1"
   width="903.85577"
   height="900.47723"
   viewBox="0 0 903.85577 900.47723"
   sodipodi:docname="290a.svg"
   inkscape:version="1.3.2 (091e20ef0f, 2023-11-25)"
   xmlns:inkscape="http://www.inkscape.org/namespaces/inkscape"
   xmlns:sodipodi="http://sodipodi.sourceforge.net/DTD/sodipodi-0.dtd"
   xmlns="http://www.w3.org/2000/svg"
   xmlns:svg="http://www.w3.org/2000/svg">
  <defs
     id="defs1" />
  <sodipodi:namedview
     id="namedview1"
     pagecolor="#ffffff"
     bordercolor="#000000"
     borderopacity="0.25"
     inkscape:showpageshadow="2"
     inkscape:pageopacity="0.0"
     inkscape:pagecheckerboard="0"
     inkscape:deskcolor="#d1d1d1"
     showgrid="false"
     inkscape:zoom="0.87121212"
     inkscape:cx="444.2087"
     inkscape:cy="455.11304"
     inkscape:window-width="1920"
     inkscape:window-height="1011"
     inkscape:window-x="0"
     inkscape:window-y="0"
     inkscape:window-maximized="1"
     inkscape:current-layer="layer1" />
  <g
     inkscape:groupmode="layer"
     id="layer1"
     inkscape:label="Layer 1"
     transform="translate(-16.144205,-7.3693336)">
    <path
       style="fill:#000000"
       d="m 437.87762,906.02077 c -26.62838,-5.79368 -51.81811,-21.77974 -85.20981,-54.07639 -10.26729,-9.93059 -26.95323,-25.45659 -37.07986,-34.50223 -18.18019,-16.23949 -44.90377,-46.48192 -59.90842,-67.79689 -3.47626,-4.93823 -7.74329,-10.47859 -9.48229,-12.31193 -4.91755,-5.18431 -32.94645,-50.41656 -36.20586,-58.428 -2.60657,-6.4068 -3.86354,-7.71492 -11.88465,-12.36828 -4.93338,-2.86204 -9.43261,-5.20372 -9.99828,-5.20372 -0.56566,0 -2.1521,-1.24158 -3.52542,-2.75908 -1.37332,-1.5175 -7.31631,-6.12067 -13.20665,-10.22926 C 143.36796,628.80871 109.54593,597.56381 90.177649,573.33333 13.94154,477.95898 -4.2766839,364.06541 39.524183,256.66667 50.73598,229.17559 69.364924,198.03753 90.177649,172 102.42131,156.6827 132.35022,126.97241 148.64292,113.96178 219.91515,57.046956 305.76716,22.727814 409.33333,9.7513872 c 25.34855,-3.1760715 94.65146,-3.1760715 120,0 89.30748,11.1898688 162.46931,37.0109728 227.35708,80.2414388 27.04618,18.019094 43.23319,31.189564 64.6912,52.635624 20.82792,20.81631 31.71855,34.03237 47.27678,57.37155 18.99269,28.49128 31.43395,54.7299 41.14567,86.77625 C 918.94352,316.93427 920,325.83402 920,372.66667 c 0,46.83264 -1.05648,55.73239 -10.19594,85.89041 -12.37753,40.8429 -32.84977,79.16508 -61.31504,114.77625 -12.24366,15.3173 -42.17257,45.0276 -58.46528,58.03822 -14.02981,11.20359 -49.00538,35.01482 -59.63885,40.6019 -4.95856,2.60535 -6.80963,4.5707 -8.78771,9.33024 -4.00697,9.64136 -43.71631,72.1053 -50.02851,78.69631 -3.16041,3.3 -12.69529,14.4 -21.18862,24.66667 -9.28533,11.22401 -21.46243,23.98284 -30.54098,32 -8.3042,7.33333 -23.00525,20.91159 -32.669,30.17392 -9.66375,9.26232 -21.27889,19.92678 -25.81143,23.6988 -23.48317,19.5429 -48.96506,32.50869 -70.87787,36.06434 -11.70895,1.89994 -42.77376,1.55567 -52.60315,-0.58296 z M 488,890.04636 c 12.1305,-3.08587 38.23312,-15.94981 53.73678,-26.48265 36.38773,-24.72102 78.22592,-64.43475 111.91311,-106.23038 7.38831,-9.16666 13.80508,-16.96666 14.25949,-17.33333 2.3917,-1.9299 10.06152,-12.97946 18.04736,-26 4.9475,-8.06667 11.42466,-17.84322 14.39369,-21.72567 6.85301,-8.96133 5.29518,-11.06929 -3.69367,-4.99804 -3.66122,2.47286 -6.8682,4.28588 -7.12663,4.02893 -0.25842,-0.25695 -5.41416,1.27794 -11.4572,3.41087 -12.84409,4.5334 -28.53797,6.88918 -24.07293,3.61354 1.46667,-1.07598 7.46667,-4.23551 13.33333,-7.02118 18.36087,-8.7183 29.44958,-15.5959 31.82868,-19.74124 1.24002,-2.16061 2.01888,-4.1641 1.7308,-4.45218 -0.28808,-0.28808 -4.69901,2.7431 -9.80207,6.73597 -10.22484,8.00039 -27.37919,17.73354 -45.75741,25.96216 -9.47259,4.24123 -30.18077,9.73474 -34.95728,9.27354 -3.83049,-0.36986 -1.72225,-1.73282 17.64964,-11.41035 12.09986,-6.04467 24.99402,-13.43814 28.6537,-16.42994 17.27112,-14.11921 20.68737,-17.15252 30.66311,-27.22599 5.87171,-5.92923 13.07171,-13.75942 16,-17.40042 2.92829,-3.641 5.77417,-6.82 6.32417,-7.06444 0.55,-0.24445 1,-0.9657 1,-1.60279 0,-0.63709 2.66955,-4.97717 5.93234,-9.64463 5.41747,-7.74977 12.73432,-20.8703 12.73432,-22.83511 0,-0.4435 -1.35,-0.83075 -3,-0.86055 -2.82157,-0.051 -2.74864,-0.2695 1.22619,-3.67432 2.32441,-1.99108 4.66191,-5.35618 5.19446,-7.47802 1.10423,-4.39961 1.53789,-4.54633 -10.52949,3.56232 -8.22305,5.52545 -21.99542,12.31772 -22.9799,11.33324 -0.32156,-0.32155 5.26687,-5.73822 12.41872,-12.03703 18.57066,-16.35565 25.26407,-23.64487 26.31003,-28.652 0.49786,-2.38334 0.60864,-4.33334 0.24616,-4.33334 -0.36248,0 -2.93912,3.15 -5.72588,7 -10.81916,14.94706 -30.63421,33.45256 -49.16029,45.91133 -12.1923,8.19931 -25.67174,14.4895 -24.49108,11.42877 0.2701,-0.7002 7.8565,-7.70032 16.85868,-15.55583 17.94134,-15.65603 22.79891,-21.23113 36.69696,-42.1176 22.61867,-33.99212 37.22373,-75.33454 42.33386,-119.83415 1.92074,-16.72598 0.89584,-65.84845 -1.65716,-79.42687 l -1.74126,-9.26102 -7.51255,-2.90223 c -12.94712,-5.00168 -25.61479,-15.16879 -32.64094,-26.1977 -1.73628,-2.72542 -7.31872,-15.37415 -12.40542,-28.10829 -5.779,-14.46722 -14.03652,-31.68349 -22.01149,-45.89218 -8.78411,-15.6503 -12.79074,-24.13767 -12.85212,-27.22505 l -0.0892,-4.48584 -1.75595,5.61861 c -4.85257,15.52705 -18.60886,29.6824 -37.39899,38.4839 -18.44509,8.63988 -27.04442,10.37287 -53.33334,10.74807 -17.22289,0.24582 -56.28995,3.71179 -162.66666,14.43155 -77,7.75942 -144.2,14.9925 -149.33334,16.07352 -5.13333,1.08102 -19.09317,5.38129 -31.02185,9.55617 -21.33979,7.46863 -21.81584,7.72064 -29.60623,15.67276 -13.92335,14.2124 -17.39656,19.73708 -19.59381,31.16695 -2.74014,14.25392 -3.85578,62.88483 -1.84477,80.41431 4.76685,41.55165 20.42899,86.34159 41.30473,118.12155 14.73867,22.43726 19.35177,27.79576 37.72767,43.82383 17.6872,15.42736 20.73366,18.80315 15.5093,17.18585 C 253.31934,612.24012 216.03341,581.83269 199.50638,559 c -2.78676,-3.85 -5.3634,-7 -5.72588,-7 -0.36248,0 -0.25028,1.95 0.24932,4.33333 1.09272,5.21278 5.87469,10.41203 25.71355,27.95734 8.29218,7.33354 14.78061,13.6298 14.41872,13.99169 -1.17218,1.17218 -14.92297,-5.81481 -25.52901,-12.97169 -10.29843,-6.94931 -10.3353,-6.96164 -9.39591,-3.14368 0.5187,2.10816 2.78345,5.28983 5.03279,7.07039 3.95989,3.13461 3.9996,3.27071 1.25092,4.28751 -2.54095,0.93996 -2.67252,1.43965 -1.25399,4.76263 0.87164,2.04186 4.91749,8.81248 8.99077,15.04581 4.07328,6.23334 7.63527,11.86919 7.91553,12.52413 1.20692,2.82044 14.98129,18.42417 25.43527,28.81329 8.2739,8.22259 13.32514,12.66339 28.71215,25.24233 3.65968,2.99179 16.55384,10.38527 28.6537,16.42994 19.37189,9.67753 21.48013,11.04049 17.64964,11.41034 -4.7592,0.45953 -25.6183,-5.06505 -34.62395,-9.17024 -3.11667,-1.42071 -8.51667,-3.87811 -12,-5.46086 -10.86672,-4.93763 -24.62612,-13.27572 -34.18451,-20.71554 -5.05148,-3.93184 -9.42022,-6.9131 -9.7083,-6.62502 -0.28808,0.28808 0.49078,2.29156 1.7308,4.45218 2.41283,4.20412 12.52882,10.41287 34.16201,20.96716 7.15,3.4883 13,6.80532 13,7.37114 0,1.57928 -16.86012,-1.87107 -27.56012,-5.64004 -5.25806,-1.85211 -9.75806,-3.17073 -10,-2.93027 -0.24193,0.24046 -3.42348,-1.57799 -7.07011,-4.041 -3.64662,-2.46301 -6.86239,-4.24603 -7.14615,-3.96227 -0.80114,0.80114 3.47305,8.33085 15.56408,27.41878 20.54171,32.42892 40.14873,55.63128 81.07816,95.94552 32.56325,32.0738 49.26308,46.50057 69.6412,60.16213 36.8092,24.67701 64.4169,31.91796 93.49294,24.52133 z m -51.6659,-87.44605 c -31.73707,-5.64446 -65.66268,-36.18398 -65.66638,-59.11228 -10e-4,-7.84631 2.48807,-16.82136 4.66561,-16.82136 0.86785,0 2.26997,2.30991 3.11583,5.13314 4.57343,15.26475 29.36558,34.33826 56.4526,43.43106 9.05514,3.0397 12.38219,3.4358 28.85955,3.4358 21.27505,0 27.8197,-1.51316 48.93742,-11.31456 16.28116,-7.5566 20.00445,-10.5205 32.08652,-25.54228 5.5192,-6.86207 10.66674,-12.4765 11.43899,-12.4765 0.92662,0 1.23704,4.87414 0.91284,14.33334 -0.43577,12.7147 -0.90265,15.03517 -4.13432,20.54827 -7.61346,12.98828 -29.87325,28.4084 -51.00276,35.33136 -9.62814,3.1546 -13.00335,3.53401 -34.66667,3.89685 -13.2,0.22108 -27.14965,-0.1582 -30.99923,-0.84284 z M 450.66667,733.4119 C 448.1,732.89044 441.5,730.47042 436,728.03406 c -9.01291,-3.99248 -11.83979,-4.54868 -28.63853,-5.6347 -33.85134,-2.18846 -53.64686,-12.54765 -65.94149,-34.50784 l -3.24669,-5.79911 4.58002,3.04812 c 2.51901,1.67647 9.08002,5.25567 14.58002,7.95379 l 10,4.90568 27.33334,0.0686 27.33333,0.0686 16.84609,5.59805 c 23.21497,7.71447 30.03758,7.67984 51.3954,-0.26085 8.66718,-3.2224 18.15851,-6.24201 21.09184,-6.71024 3.10689,-0.49593 12.75974,0.27781 23.12289,1.85347 9.78425,1.48764 19.38425,2.32141 21.33333,1.85282 4.93162,-1.18562 14.09827,-6.01308 23.54378,-12.39892 6.11292,-4.13277 8.10231,-4.93317 8.43371,-3.39319 1.29777,6.03056 -13.43842,20.42051 -29.44059,28.74887 -12.54266,6.52785 -24.281,9.18556 -40.70568,9.21628 -11.50828,0.0215 -13.44654,0.44528 -27.54949,6.02315 -13.42144,5.30832 -16.29814,5.98232 -24.9541,5.84666 -5.38112,-0.0843 -11.88385,-0.57997 -14.45051,-1.10143 z m 4,-75.52588 c -10.92316,-2.88741 -32.97155,-14.32666 -41.51769,-21.54039 -12.98543,-10.96091 -16.42053,-18.38774 -13.01855,-28.14667 2.04026,-5.85268 4.44349,-5.23882 7.1408,1.82398 2.65668,6.95643 6.81467,10.43531 20.48039,17.1354 5.36339,2.62958 11.36339,5.91775 13.33334,7.30703 6.34005,4.47126 16.76523,9.18699 22.37901,10.12291 6.98602,1.16471 16.56419,-2.11551 29.2027,-10.00102 5.13333,-3.20282 14.13333,-8.29721 20,-11.32086 10.72866,-5.52949 12.44079,-7.40481 16.37258,-17.93307 L 530.28409,602 l 2.85297,4.66667 c 3.62941,5.9367 3.70209,13.7432 0.17408,18.69784 -9.29494,13.05353 -52.79208,34.93251 -68.64447,34.52803 -1.46667,-0.0374 -5.96667,-0.94035 -10,-2.00652 z m -151.33334,-185.167 c -10.08714,-2.60378 -17.14473,-5.45056 -27.0296,-10.90276 -25.0959,-13.84217 -52.87902,-34.82179 -63.69054,-48.09406 -6.00589,-7.37287 -10.59416,-14.85234 -9.67499,-15.77151 0.25749,-0.25749 12.65317,7.58369 27.54595,17.42486 26.25551,17.34967 53.76492,32.29633 70.18252,38.1322 11.10583,3.94773 35.88146,4.78903 57.27795,1.94497 25.10115,-3.33649 50.05538,-2.4289 50.05538,1.82052 0,0.55681 -4.65,1.35715 -10.33333,1.77854 -5.68334,0.42139 -18.13334,2.9847 -27.66667,5.69625 -35.75654,10.17014 -51.059,11.99978 -66.66667,7.97099 z m 288,-0.2157 c -5.86666,-1.05822 -16.96666,-3.74415 -24.66666,-5.96872 -18.76245,-5.42058 -30.81701,-7.86793 -38.75384,-7.86793 -3.61872,0 -6.5795,-0.54131 -6.5795,-1.2029 0,-4.43919 24.42639,-5.41928 50.05538,-2.00844 24.07464,3.20398 43.22436,2.13095 59.27796,-3.32156 17.1362,-5.82021 37.00144,-16.37988 67.73573,-36.00594 14.15466,-9.03877 25.99788,-16.17199 26.31827,-15.8516 0.96094,0.96094 -6.9206,12.60926 -13.02044,19.24322 -5.95971,6.48158 -26.71827,23.70524 -37.05593,30.74582 -8.4829,5.77738 -33.7409,18.2977 -43.60224,21.61351 -9.82975,3.30519 -23.64311,3.52245 -39.70873,0.62454 z M 397.79104,400.09094 c -5.35775,-6.11824 -17.88471,-13.26463 -47.1517,-26.89917 -46.84996,-21.82588 -66.63702,-28.82858 -90.39097,-31.98964 -20.94746,-2.78759 -36.34554,0.31314 -44.15097,8.89073 C 211.43989,355.21112 208,356.02129 208,352 c 0,-1.5426 -0.88889,-2.66667 -2.10875,-2.66667 -4.97775,0 9.65979,-18.27229 18.15105,-22.65827 10.01347,-5.17223 31.4389,-6.68493 56.81287,-4.01116 10.98112,1.15714 15.00953,2.48504 40.66667,13.40513 41.42439,17.6309 55.30445,26.32566 76.26814,47.77597 l 11.78998,12.06365 -2.85206,4.00536 c -1.56863,2.20294 -3.27413,4.22539 -3.78998,4.49432 -0.51586,0.26894 -2.83195,-1.67389 -5.14688,-4.31739 z M 520,397.20404 c 0,-3.18082 9.63757,-14.42975 18.95391,-22.12292 23.67042,-19.54638 68.11367,-44.3521 88.72392,-49.5207 5.3228,-1.33484 9.36264,-2.74217 8.97741,-3.1274 -0.93163,-0.93164 20.26958,-2.89708 32.01143,-2.9676 15.90485,-0.0955 44.85807,10.60546 51.48322,19.02797 3.77034,4.79321 2.91343,10.98094 -1.83427,13.24525 -3.4377,1.63953 -3.90892,1.49034 -7.03792,-2.22826 -5.58458,-6.6369 -13.64711,-8.87049 -31.2777,-8.66497 -30.31532,0.35338 -53.14977,7.77825 -107.33333,34.9006 C 534.67461,394.76348 520,400.74237 520,397.20404 Z"
       id="path1" />
  </g>
</svg>
